<?xml version="1.0" encoding="iso-8859-1"?>
<!-- Generator: Adobe Illustrator 19.0.0, SVG Export Plug-In . SVG Version: 6.00 Build 0)  -->
<svg version="1.1" id="Capa_1" xmlns="http://www.w3.org/2000/svg" xmlns:xlink="http://www.w3.org/1999/xlink" x="0px" y="0px"
	 viewBox="0 0 512 512" style="enable-background:new 0 0 512 512;" xml:space="preserve">
<g>
	<path style="fill:#662D16;" d="M97.773,512c9.999,0,18.105-8.106,18.105-18.105V310.063c0-9.999-8.106-18.105-18.105-18.105
		s-18.105,8.106-18.105,18.105v183.832C79.667,503.894,87.774,512,97.773,512z"/>
	<path style="fill:#662D16;" d="M414.143,512c9.999,0,18.105-8.106,18.105-18.105V310.063c0-9.999-8.106-18.105-18.105-18.105
		c-9.999,0-18.105,8.106-18.105,18.105v183.832C396.038,503.894,404.144,512,414.143,512z"/>
</g>
<rect x="326.93" y="218.07" style="fill:#A5C8CD;" width="39.23" height="56.27"/>
<path style="fill:#373C41;" d="M381.879,139.362c-7.694-9.268-21.406-10.51-30.626-2.774l-25.188,35.002
	c-3.578-8.14-5.85-13.12-10.998-24.208c-2.02-4.351-4.294-9.142-6.76-14.241c-8.255-17.067-25.788-28.094-44.669-28.094h-56.443
	c-0.001,0-0.002,0-0.002,0H158.15c-18.881,0-36.415,11.027-44.669,28.092c-11.685,24.162-25.3,55.112-31.529,70.723
	c-4.353,10.938,0.698,23.377,11.422,28.126l63.674,28.197v38.834h115.169V158.55c1.217,2.557,2.373,5.013,3.444,7.321
	c15.286,32.925,23.718,54.028,23.802,54.237c2.589,6.497,8.116,11.356,14.866,13.068c1.759,0.446,3.546,0.665,5.32,0.665
	c5.037,0,9.98-1.761,13.932-5.076l45.537-58.614C388.338,162.415,389.574,148.63,381.879,139.362z M130.505,200.659
	c6.362-14.7,14.552-32.827,22.084-48.403c0.862-1.783,2.547-3.025,4.459-3.378v63.536L130.505,200.659z"/>
<path style="fill:#50555A;" d="M381.879,139.362c-7.694-9.268-21.406-10.51-30.626-2.774l-25.188,35.002
	c-5.997-13.641-10.995-24.462-17.758-38.449c-8.255-17.067-25.788-28.094-44.669-28.094h-49.044l-0.206,193.971h57.828V158.55
	c9.999,21.019,22.038,48.518,27.247,61.558c5.494,13.789,22.791,18.159,34.118,8.657l45.537-58.614
	C388.338,162.415,389.574,148.63,381.879,139.362z"/>
<ellipse style="fill:#BA6746;" cx="214.4" cy="45.3" rx="45.06" ry="45.3"/>
<g>
	<path style="fill:#292D30;" d="M290.465,291.951l6.895,4.766c7.68,5.309,11.656,14.537,10.235,23.765L289.652,437.13
		c-1.853,12.054-12.239,20.679-24.068,20.679c-1.233,0-2.482-0.094-3.738-0.287c-13.309-2.047-22.439-14.496-20.391-27.806
		l15.622-101.562l-29.61-20.466c-5.557-3.841-9.021-9.576-10.13-15.737L290.465,291.951L290.465,291.951z"/>
	<path style="fill:#292D30;" d="M137.501,295.725l6.456-3.774h78.129c-0.989,7.155-5.112,13.804-11.831,17.732l-33.83,19.775
		l15.422,100.258c2.048,13.31-7.082,25.759-20.391,27.807c-1.257,0.193-2.504,0.287-3.738,0.287
		c-11.828-0.001-22.215-8.626-24.069-20.68l-17.943-116.647C124.184,310.591,128.861,300.775,137.501,295.725z"/>
</g>
<path style="fill:#C8E6EB;" d="M419.413,237.526H273.682c-6.296,0-11.4-5.104-11.4-11.4v-85.655c0-6.296,5.104-11.4,11.4-11.4
	h145.731c6.296,0,11.4,5.104,11.4,11.4v85.655C430.813,232.422,425.709,237.526,419.413,237.526z"/>
<g>
	<ellipse style="fill:#E4F2F6;" cx="346.55" cy="183.3" rx="16.552" ry="16.64"/>
	<path style="fill:#E4F2F6;" d="M298.997,284.811h95.1c6.666,0,12.07-5.404,12.07-12.07c0-6.666-5.405-12.07-12.07-12.07h-95.1
		c-6.666,0-12.07,5.404-12.07,12.07S292.332,284.811,298.997,284.811z"/>
</g>
<path style="fill:#80391B;" d="M455.061,310.063c0,13.833-11.154,25.046-24.914,25.046H81.853
	c-13.759,0-24.914-11.214-24.914-25.046l0,0c0-13.833,11.154-25.046,24.914-25.046h348.295
	C443.907,285.017,455.061,296.231,455.061,310.063L455.061,310.063z"/>
<polygon style="fill:#FFFFFF;" points="180.927,105.047 214.396,192.87 247.865,105.047 "/>
<path style="fill:#78BEFF;" d="M228.948,135.099l-7.477-13.599l6.45-11.731c0.543-0.987,0.524-2.187-0.05-3.157
	c-0.573-0.97-1.616-1.564-2.742-1.564h-21.48c-1.126,0-2.169,0.595-2.743,1.564c-0.573,0.97-0.592,2.17-0.049,3.157l6.472,11.771
	l-7.457,13.561c-1.027,1.867-1.36,4.036-0.943,6.126l4.655,23.296l10.812,28.371l10.851-28.472l4.643-23.194
	C230.309,139.137,229.975,136.967,228.948,135.099z"/>
<path style="fill:#BA6746;" d="M187.01,225.682c10.989,4.866,15.974,17.768,11.133,28.816
	c-4.842,11.052-17.678,16.058-28.663,11.192L187.01,225.682z"/>
<polygon style="fill:#FFFFFF;" points="157.531,260.399 169.479,265.69 187.01,225.682 175.062,220.391 "/>
<g>
</g>
<g>
</g>
<g>
</g>
<g>
</g>
<g>
</g>
<g>
</g>
<g>
</g>
<g>
</g>
<g>
</g>
<g>
</g>
<g>
</g>
<g>
</g>
<g>
</g>
<g>
</g>
<g>
</g>
</svg>
